<?xml version="1.0" encoding="UTF-8" standalone="no"?>
<!-- Created with Inkscape (http://www.inkscape.org/) -->

<svg
   width="210mm"
   height="297mm"
   viewBox="0 0 210 297"
   version="1.1"
   id="svg1"
   xml:space="preserve"
   inkscape:version="1.4 (86a8ad7, 2024-10-11)"
   xmlns:inkscape="http://www.inkscape.org/namespaces/inkscape"
   xmlns:sodipodi="http://sodipodi.sourceforge.net/DTD/sodipodi-0.dtd"
   xmlns="http://www.w3.org/2000/svg"
   xmlns:svg="http://www.w3.org/2000/svg"><sodipodi:namedview
     id="namedview1"
     pagecolor="#ffffff"
     bordercolor="#000000"
     borderopacity="0.25"
     inkscape:showpageshadow="2"
     inkscape:pageopacity="0.0"
     inkscape:pagecheckerboard="0"
     inkscape:deskcolor="#d1d1d1"
     inkscape:document-units="mm"
     inkscape:zoom="0.71891835"
     inkscape:cx="396.42889"
     inkscape:cy="561.25984"
     inkscape:window-width="1920"
     inkscape:window-height="1009"
     inkscape:window-x="-8"
     inkscape:window-y="-8"
     inkscape:window-maximized="1"
     inkscape:current-layer="layer1" /><defs
     id="defs1" /><g
     inkscape:label="Layer 1"
     inkscape:groupmode="layer"
     id="layer1"><path
       style="fill:#ffffff;fill-opacity:1"
       d="m 92.584218,194.46484 c -7.14174,-0.53994 -11.02497,-1.46611 -15.69144,-3.74248 -7.57624,-3.69581 -13.01996,-10.62784 -15.02125,-19.12806 -1.25187,-5.31712 -1.22796,-4.82797 -1.36067,-27.84054 -0.12879,-22.33407 0.0674,-30.30277 0.84329,-34.25431 0.91862,-4.67835 3.0698,-9.739145 5.49227,-12.920945 4.76056,-6.25278 10.9202,-9.78197 20.04926,-11.4873 5.51066,-1.02941 52.529532,-1.03112 57.414592,-0.002 5.19045,1.09336 7.15063,1.70061 9.81399,3.04028 3.04322,1.53075 4.55733,2.58889 6.88729,4.81318 2.58251,2.4654 4.0203,4.29338 5.4662,6.94964 2.62115,4.815305 3.65231,9.162445 4.29907,18.123965 0.39523,5.47642 0.21556,41.72498 -0.22951,46.30208 -1.07772,11.08331 -4.62581,18.21866 -11.7598,23.64938 -5.31437,4.04555 -10.78587,5.76164 -20.75268,6.50892 -6.90302,0.51756 -38.557812,0.5094 -45.450612,-0.0117 z m 45.243752,-10.04062 c 5.61151,-0.43682 6.62297,-0.60473 9.58143,-1.5906 3.00951,-1.00288 5.23923,-2.43491 7.53858,-4.84161 2.03666,-2.13174 3.28662,-4.257 4.30746,-7.32375 1.39007,-4.17595 1.70729,-9.85355 1.71481,-30.69166 0.006,-17.00435 -0.20986,-24.39986 -0.81527,-27.91354 -1.65946,-9.63112 -7.38523,-15.315715 -17.16763,-17.044175 -3.70495,-0.65463 -15.06231,-0.94939 -31.88229,-0.82744 -15.917052,0.1154 -20.251672,0.30314 -23.944802,1.03709 -8.89687,1.76811 -14.33255,7.364075 -15.98466,16.455995 -0.72267,3.97695 -0.95031,10.61002 -0.94827,27.63061 0.003,23.82168 0.30547,27.98773 2.40569,33.11976 1.87651,4.58537 5.82656,8.39691 10.55849,10.18822 5.02333,1.90163 8.12022,2.10776 32.411462,2.15733 13.01205,0.0265 18.42148,-0.0602 22.225,-0.35623 z M 112.0311,167.64289 c -6.04364,-0.71015 -11.52864,-3.39031 -16.206152,-7.91888 -3.96954,-3.84314 -6.49289,-8.21639 -7.88292,-13.662 -0.51394,-2.0134 -0.60567,-3.03521 -0.59383,-6.61458 0.0102,-3.09199 0.13509,-4.69701 0.4631,-5.95313 0.24699,-0.94588 0.51602,-2.01744 0.59784,-2.38125 0.31905,-1.41864 2.1579,-5.30345 3.38178,-7.14442 4.21151,-6.33502 10.697022,-10.71359 18.255802,-12.32507 2.29047,-0.48831 8.85809,-0.5476 10.78791,-0.0974 2.85486,0.66603 5.14409,1.42814 6.93918,2.31015 8.03357,3.94723 13.47467,10.74974 15.63523,19.54729 0.69726,2.83918 0.62581,9.57766 -0.13344,12.58319 -0.83059,3.28797 -2.41832,7.047 -3.8254,9.05689 -3.38538,4.83567 -7.73719,8.4724 -12.54421,10.48299 -2.0636,0.86312 -2.35521,0.95599 -5.2176,1.66163 -1.9356,0.47717 -7.31145,0.73021 -9.65729,0.45457 z m 8.07511,-10.31997 c 1.70261,-0.473 3.56842,-1.25463 5.5488,-2.32452 1.02561,-0.55408 4.94486,-4.47333 5.49893,-5.49893 2.83119,-5.24058 3.52793,-9.64126 2.29253,-14.47986 -1.68939,-6.61668 -7.08853,-11.95707 -13.61016,-13.46208 -2.52448,-0.58258 -7.03124,-0.46152 -9.32435,0.25047 -5.29166,1.64299 -9.33775,5.12106 -11.594232,9.96651 -1.23867,2.65986 -1.7033,4.73168 -1.7033,7.59513 0,7.27968 4.432142,14.12626 10.980212,16.96177 3.63518,1.57414 8.38975,1.96991 11.91157,0.99151 z m 22.78258,-41.1504 c -4.48122,-1.59736 -5.78683,-7.36605 -2.43631,-10.76458 4.16966,-4.2294 11.26612,-1.37067 11.26612,4.53845 0,4.62055 -4.4773,7.77762 -8.82981,6.22613 z"
       id="path1" /></g></svg>
