<?xml version="1.0" encoding="UTF-8" standalone="no"?><!DOCTYPE svg PUBLIC "-//W3C//DTD SVG 1.1//EN" "http://www.w3.org/Graphics/SVG/1.1/DTD/svg11.dtd"><svg width="100%" height="100%" viewBox="0 0 215 215" version="1.1" xmlns="http://www.w3.org/2000/svg" xmlns:xlink="http://www.w3.org/1999/xlink" xml:space="preserve" xmlns:serif="http://www.serif.com/" style="fill-rule:evenodd;clip-rule:evenodd;stroke-linejoin:round;stroke-miterlimit:2;"><g><path d="M204.571,113.41c-3.339,0 -6.046,-2.707 -6.046,-6.048c0,-3.34 2.707,-6.046 6.046,-6.046c3.337,0 6.044,2.706 6.044,6.046c0,3.341 -2.707,6.048 -6.044,6.048m-97.208,81.97c-48.611,0 -88.019,-39.408 -88.019,-88.018c0,-48.609 39.408,-88.019 88.019,-88.019c48.61,0 88.017,39.41 88.017,88.019c0,48.61 -39.407,88.018 -88.017,88.018m71.576,-13.541c-3.339,0 -6.046,-2.706 -6.046,-6.045c0,-3.339 2.707,-6.046 6.046,-6.046c3.338,0 6.045,2.707 6.045,6.046c0,3.339 -2.707,6.045 -6.045,6.045m-71.576,29.017c-3.339,0 -6.045,-2.706 -6.045,-6.042c0,-3.342 2.706,-6.049 6.045,-6.049c3.338,0 6.044,2.707 6.044,6.049c0,3.336 -2.706,6.042 -6.044,6.042m-73.994,-35.062c-3.338,0 -6.045,-2.706 -6.045,-6.046c0,-3.338 2.707,-6.043 6.045,-6.043c3.338,0 6.046,2.705 6.046,6.043c0,3.34 -2.708,6.046 -6.046,6.046m-24.18,-62.384c-3.339,0 -6.045,-2.707 -6.045,-6.048c0,-3.34 2.706,-6.046 6.045,-6.046c3.338,0 6.046,2.706 6.046,6.046c0,3.341 -2.708,6.048 -6.046,6.048m24.18,-77.382c3.338,0 6.046,2.71 6.046,6.047c0,3.339 -2.708,6.045 -6.046,6.045c-3.338,0 -6.045,-2.706 -6.045,-6.045c0,-3.337 2.707,-6.047 6.045,-6.047m74.719,-32.158c3.338,0 6.045,2.706 6.045,6.043c0,3.34 -2.707,6.046 -6.045,6.046c-3.339,0 -6.046,-2.706 -6.046,-6.046c0,-3.337 2.707,-6.043 6.046,-6.043m70.851,32.158c3.338,0 6.045,2.71 6.045,6.047c0,3.339 -2.707,6.045 -6.045,6.045c-3.339,0 -6.046,-2.706 -6.046,-6.045c0,-3.337 2.707,-6.047 6.046,-6.047m-71.576,-36.028c-59.295,0 -107.363,48.068 -107.363,107.362c0,59.295 48.068,107.363 107.363,107.363c59.294,0 107.362,-48.068 107.362,-107.363c0,-59.294 -48.068,-107.362 -107.362,-107.362" style="fill:#fff;fill-rule:nonzero;"/><path d="M121.804,161.287l-28.937,-0.144l-30.02,-94.468l28.125,0l16.499,64.047l17.308,-64.047l28.129,0l-31.104,94.612Zm-13.716,-126.468c-40.065,0 -72.543,32.479 -72.543,72.543c0,40.066 32.478,72.543 72.543,72.543c40.065,0 72.541,-32.477 72.541,-72.543c0,-40.064 -32.476,-72.543 -72.541,-72.543" style="fill:#fff;fill-rule:nonzero;"/></g></svg>